<svg id="svg" version="1.1" xmlns="http://www.w3.org/2000/svg" xmlns:xlink="http://www.w3.org/1999/xlink" width="400" height="400" viewBox="0, 0, 400,400"><g id="svgg"><path id="path0" d="M64.648 165.813 C 31.495 173.124,29.371 223.973,61.772 234.674 C 74.511 238.881,87.721 235.814,96.635 226.581 L 99.324 223.795 94.291 218.630 L 89.258 213.466 86.831 215.690 C 71.203 230.016,49.637 214.059,56.385 193.164 C 60.735 179.697,76.576 175.885,86.503 185.917 L 88.736 188.173 93.587 183.124 C 99.296 177.182,99.165 177.734,95.653 174.421 C 87.325 166.565,75.778 163.359,64.648 165.813 M103.140 190.332 C 103.376 217.468,103.278 216.459,106.234 222.461 C 116.177 242.652,155.958 242.783,165.531 222.656 C 168.586 216.234,168.495 217.182,168.653 190.137 L 168.794 166.016 160.782 166.016 L 152.770 166.016 152.655 188.379 C 152.526 213.353,152.552 213.106,149.554 217.464 C 144.711 224.503,129.370 225.261,123.290 218.761 C 119.195 214.383,119.153 214.069,119.146 187.793 L 119.141 166.016 111.035 166.015 L 102.930 166.015 103.140 190.332 M193.016 172.440 C 183.927 174.172,179.102 179.801,179.102 188.672 C 179.102 197.492,183.086 202.030,194.537 206.252 C 202.582 209.218,205.469 211.788,205.469 215.983 C 205.469 222.738,193.526 224.301,182.990 218.925 L 179.688 217.240 179.688 222.841 L 179.688 228.443 182.520 229.615 C 200.470 237.048,217.684 229.203,217.122 213.845 C 216.820 205.607,213.337 201.789,202.019 197.289 C 193.069 193.730,190.623 191.737,190.626 188.008 C 190.632 181.935,200.391 180.460,210.738 184.968 C 212.455 185.716,213.905 186.328,213.961 186.328 C 214.017 186.328,214.063 183.857,214.063 180.837 L 214.063 175.347 212.317 174.575 C 207.308 172.359,198.535 171.389,193.016 172.440 M281.219 173.544 C 278.908 175.102,278.032 176.809,278.213 179.400 C 278.670 185.929,286.443 187.920,290.127 182.452 C 292.018 179.647,291.025 175.636,287.921 173.544 C 286.970 172.903,286.038 172.656,284.570 172.656 C 283.103 172.656,282.171 172.903,281.219 173.544 M244.467 189.812 C 241.716 190.692,239.800 191.854,237.369 194.116 L 235.479 195.873 235.611 192.858 L 235.742 189.842 230.176 189.843 L 224.609 189.844 224.609 218.750 L 224.609 247.656 230.176 247.656 L 235.742 247.656 235.684 237.109 C 235.652 231.308,235.671 226.563,235.727 226.563 C 235.783 226.563,236.488 227.185,237.295 227.946 C 246.157 236.304,263.107 232.603,268.676 221.094 C 277.184 203.513,262.193 184.143,244.467 189.812 M316.371 189.669 C 314.401 190.276,311.438 192.676,309.706 195.066 L 308.594 196.602 308.594 193.418 L 308.594 190.234 302.930 190.234 L 297.266 190.234 297.266 210.742 L 297.266 231.250 302.930 231.250 L 308.594 231.250 308.594 219.918 C 308.594 209.296,308.644 208.478,309.397 206.876 C 311.719 201.936,316.467 199.154,321.122 200.005 L 322.656 200.286 322.656 194.911 C 322.656 190.371,322.560 189.500,322.038 189.300 C 321.010 188.905,318.272 189.084,316.371 189.669 M339.701 189.659 C 321.725 194.190,318.926 221.637,335.602 229.846 C 343.681 233.822,354.250 233.184,361.417 228.287 C 362.872 227.293,364.063 226.408,364.063 226.320 C 364.063 226.170,360.347 220.888,359.750 220.187 C 359.599 220.011,358.618 220.390,357.570 221.030 C 348.900 226.320,337.753 223.114,335.723 214.746 L 335.462 213.672 350.331 213.672 L 365.199 213.672 365.442 212.378 C 365.803 210.454,364.959 203.852,364.036 201.387 C 360.486 191.897,350.300 186.988,339.701 189.659 M278.523 210.742 L 278.542 231.250 284.193 231.250 L 289.844 231.250 289.844 210.742 L 289.844 190.234 284.173 190.234 L 278.503 190.234 278.523 210.742 M349.850 198.595 C 352.448 199.804,355.078 203.484,355.078 205.908 C 355.078 206.096,350.680 206.250,345.305 206.250 L 335.532 206.250 335.790 205.176 C 337.281 198.974,343.956 195.850,349.850 198.595 M252.177 199.092 C 260.209 201.824,262.486 214.222,256.002 219.916 C 249.496 225.628,238.140 222.796,235.951 214.915 C 232.974 204.197,241.820 195.570,252.177 199.092 M89.152 242.793 C 86.993 244.306,87.336 246.364,90.176 248.926 L 91.799 250.391 113.302 250.391 C 137.164 250.391,136.114 250.502,138.014 247.760 C 139.325 245.869,139.353 244.396,138.104 243.146 L 137.145 242.188 113.581 242.188 C 92.922 242.188,89.911 242.262,89.152 242.793 M95.090 256.046 C 93.516 257.621,95.412 261.914,98.095 262.849 C 99.949 263.495,127.605 263.433,128.906 262.779 C 130.139 262.160,132.422 258.798,132.422 257.601 C 132.422 255.117,132.124 255.078,113.211 255.078 L 96.058 255.078 95.090 256.046 M102.710 268.704 C 106.570 275.917,118.808 276.113,123.890 269.043 L 124.663 267.969 113.489 267.969 C 102.670 267.969,102.329 267.992,102.710 268.704 " stroke="none" fill="#ffffff" fill-rule="evenodd"></path><path id="path1" d="M0.000 200.000 L 0.000 400.000 200.000 400.000 L 400.000 400.000 400.000 200.000 L 400.000 0.000 200.000 0.000 L 0.000 0.000 0.000 200.000 M113.024 118.012 C 114.672 118.763,114.844 119.808,114.844 129.098 C 114.844 137.615,114.820 137.874,113.965 138.846 C 112.547 140.457,110.820 140.567,109.391 139.138 L 108.203 137.951 108.203 128.723 L 108.203 119.496 109.162 118.537 C 110.197 117.502,111.513 117.323,113.024 118.012 M82.495 129.590 C 85.500 132.726,92.620 141.634,92.848 142.542 C 93.354 144.557,90.960 146.779,88.854 146.251 C 87.149 145.823,76.563 132.878,76.563 131.222 C 76.563 127.991,80.045 127.033,82.495 129.590 M145.195 128.711 C 147.594 130.392,147.166 131.353,140.344 139.607 C 134.406 146.792,132.706 147.718,130.703 144.860 C 129.320 142.885,129.492 142.554,136.054 134.570 C 141.633 127.784,142.801 127.035,145.195 128.711 M115.108 147.282 C 137.221 150.231,148.316 172.378,138.094 193.164 C 135.047 199.359,134.375 202.277,134.375 209.306 C 134.375 215.441,133.924 216.406,131.055 216.406 C 127.894 216.406,127.624 215.619,127.836 207.031 C 128.042 198.669,128.230 197.864,131.653 190.625 C 135.198 183.129,136.003 178.104,134.564 172.445 C 129.460 152.365,102.297 147.682,91.235 164.975 C 88.747 168.865,88.745 168.843,91.522 170.843 C 92.855 171.804,95.078 173.742,96.461 175.150 L 98.977 177.711 94.537 182.312 C 92.095 184.843,89.803 187.234,89.444 187.625 C 88.818 188.306,88.689 188.236,86.462 186.008 C 75.867 175.414,58.996 180.508,55.903 195.234 C 51.558 215.929,71.908 229.093,87.055 215.386 L 89.334 213.323 94.303 218.572 L 99.271 223.821 97.608 225.793 C 87.049 238.315,66.534 240.176,52.176 229.915 C 34.277 217.121,33.948 185.920,51.563 171.829 C 59.274 165.661,73.716 162.999,82.074 166.206 C 82.521 166.378,82.846 166.095,83.209 165.219 C 88.163 153.259,101.920 145.524,115.108 147.282 M119.147 187.402 C 119.156 213.743,119.412 215.390,124.148 219.559 C 129.929 224.648,142.715 224.228,148.090 218.772 C 152.427 214.370,152.734 212.187,152.734 185.850 L 152.734 166.016 160.979 166.016 L 169.225 166.016 169.031 189.355 C 168.794 217.788,168.500 219.675,163.209 226.713 C 152.777 240.589,122.548 241.505,110.213 228.319 C 103.369 221.003,102.734 217.530,102.734 187.413 L 102.734 166.016 110.938 166.016 L 119.141 166.016 119.147 187.402 M206.836 172.644 C 207.695 172.882,209.673 173.528,211.230 174.078 L 214.063 175.079 214.063 180.905 L 214.063 186.730 211.816 185.597 C 202.230 180.763,191.517 181.647,190.754 187.335 C 190.241 191.155,192.752 193.403,201.445 196.906 C 216.065 202.799,220.863 211.166,215.872 222.067 C 211.344 231.958,194.486 235.587,181.745 229.412 L 179.492 228.320 179.445 222.754 C 179.419 219.692,179.471 217.188,179.561 217.188 C 179.650 217.188,181.341 217.973,183.319 218.932 C 192.765 223.516,202.700 223.044,204.828 217.911 C 206.769 213.228,204.152 210.202,195.052 206.603 C 179.954 200.633,175.089 192.075,180.488 180.982 C 184.053 173.660,196.400 169.752,206.836 172.644 M288.146 173.475 C 290.970 175.220,291.962 178.979,290.439 182.164 C 288.214 186.816,281.201 186.889,278.828 182.285 C 275.644 176.108,282.270 169.843,288.146 173.475 M257.204 189.865 C 274.748 195.284,276.194 222.047,259.395 230.448 C 252.300 233.997,242.783 233.047,237.486 228.261 L 235.938 226.862 235.938 237.259 L 235.938 247.656 230.273 247.656 L 224.609 247.656 224.609 218.750 L 224.609 189.844 230.273 189.844 L 235.938 189.844 235.938 192.659 L 235.938 195.475 237.598 193.892 C 242.780 188.950,249.664 187.536,257.204 189.865 M352.472 189.890 C 360.567 192.605,364.997 199.188,365.515 209.273 L 365.741 213.663 350.671 213.765 L 335.601 213.867 336.301 215.936 C 338.886 223.570,350.293 225.986,358.191 220.572 L 359.546 219.642 361.871 222.975 L 364.197 226.308 362.860 227.443 C 352.370 236.344,332.840 233.147,326.997 221.571 C 317.819 203.390,333.728 183.605,352.472 189.890 M322.959 194.727 L 323.067 200.195 319.639 200.199 C 315.700 200.203,314.542 200.665,312.055 203.228 C 308.785 206.597,308.804 206.505,308.670 219.824 L 308.552 231.641 302.909 231.641 L 297.266 231.641 297.266 210.742 L 297.266 189.844 302.930 189.844 L 308.594 189.844 308.606 193.066 L 308.619 196.289 309.464 195.117 C 312.443 190.987,315.992 189.002,320.117 189.156 L 322.852 189.258 322.959 194.727 M289.844 210.742 L 289.844 231.641 284.180 231.641 L 278.516 231.641 278.516 210.742 L 278.516 189.844 284.180 189.844 L 289.844 189.844 289.844 210.742 M342.093 198.212 C 339.033 199.304,337.049 201.384,336.119 204.475 L 335.584 206.250 345.300 206.250 L 355.015 206.250 354.614 204.785 C 353.099 199.258,347.460 196.297,342.093 198.212 M243.427 198.994 C 232.895 202.425,232.814 219.078,243.313 222.130 C 252.245 224.727,259.493 219.643,259.548 210.742 C 259.603 201.981,251.773 196.275,243.427 198.994 M138.033 242.997 C 139.906 244.470,139.042 247.664,136.202 249.769 C 134.606 250.952,93.691 251.256,91.417 250.102 C 88.179 248.459,86.686 244.858,88.534 243.145 L 89.567 242.188 113.286 242.188 C 136.689 242.188,137.018 242.198,138.033 242.997 M130.859 255.372 C 133.278 256.580,132.722 259.691,129.621 262.301 L 128.425 263.307 113.072 263.196 L 97.718 263.086 96.673 262.109 C 93.561 259.203,93.564 255.721,96.680 254.967 C 99.225 254.351,129.535 254.710,130.859 255.372 M124.609 267.850 C 124.609 268.619,122.335 271.233,120.757 272.278 C 115.364 275.851,107.757 274.934,103.727 270.226 C 101.382 267.486,101.043 267.578,113.477 267.578 C 119.600 267.578,124.609 267.701,124.609 267.850 " stroke="none" fill="#f2f2f2" fill-rule="evenodd"></path><path id="path2" d="M109.162 118.537 L 108.203 119.496 108.203 128.723 L 108.203 137.951 109.391 139.138 C 110.820 140.567,112.547 140.457,113.965 138.846 C 114.974 137.699,115.346 121.451,114.410 119.397 C 113.531 117.468,110.695 117.003,109.162 118.537 M77.412 129.029 C 75.607 130.950,76.050 131.897,82.194 139.252 C 88.113 146.337,88.928 146.968,90.923 146.008 C 94.097 144.482,93.643 142.835,88.253 136.319 C 80.915 127.447,79.679 126.616,77.412 129.029 M140.874 129.004 C 139.938 129.855,133.298 137.807,131.140 140.662 C 128.896 143.629,131.151 147.375,134.349 145.992 C 135.328 145.568,143.997 135.574,145.887 132.689 C 147.870 129.663,143.601 126.524,140.874 129.004 M106.851 147.310 C 96.870 148.764,88.392 154.993,83.632 164.369 C 82.791 166.027,82.817 166.797,83.714 166.797 C 83.970 166.797,85.269 167.313,86.599 167.942 L 89.019 169.087 89.867 167.334 C 96.853 152.903,116.587 149.806,128.157 161.326 C 136.167 169.301,137.289 178.707,131.653 190.625 C 128.230 197.864,128.042 198.669,127.836 207.031 C 127.624 215.619,127.894 216.406,131.055 216.406 C 133.924 216.406,134.375 215.441,134.375 209.306 C 134.375 202.277,135.047 199.359,138.094 193.164 C 141.497 186.244,142.335 182.847,142.089 176.976 C 141.309 158.367,125.030 144.661,106.851 147.310 " stroke="none" fill="#e6e6e6" fill-rule="evenodd"></path><path id="path3" d="M168.932 186.328 C 168.932 197.607,168.982 202.222,169.043 196.582 C 169.104 190.942,169.104 181.714,169.043 176.074 C 168.982 170.435,168.932 175.049,168.932 186.328 M178.614 188.867 C 178.618 189.727,178.698 190.032,178.792 189.546 C 178.885 189.060,178.882 188.357,178.784 187.984 C 178.686 187.610,178.610 188.008,178.614 188.867 M249.712 188.952 C 250.306 189.042,251.185 189.040,251.666 188.947 C 252.146 188.854,251.660 188.781,250.586 188.784 C 249.512 188.787,249.119 188.862,249.712 188.952 M344.634 188.952 C 345.228 189.042,346.107 189.040,346.587 188.947 C 347.068 188.854,346.582 188.781,345.508 188.784 C 344.434 188.787,344.041 188.862,344.634 188.952 M281.738 190.133 C 283.188 190.209,285.562 190.209,287.012 190.133 C 288.462 190.058,287.275 189.997,284.375 189.997 C 281.475 189.997,280.288 190.058,281.738 190.133 M300.488 190.133 C 301.938 190.209,304.312 190.209,305.762 190.133 C 307.212 190.058,306.025 189.997,303.125 189.997 C 300.225 189.997,299.038 190.058,300.488 190.133 M102.825 208.984 C 102.825 209.736,102.905 210.044,103.004 209.668 C 103.102 209.292,103.102 208.677,103.004 208.301 C 102.905 207.925,102.825 208.232,102.825 208.984 M217.299 214.648 C 217.302 215.723,217.378 216.116,217.468 215.522 C 217.558 214.928,217.555 214.049,217.462 213.569 C 217.370 213.088,217.296 213.574,217.299 214.648 M179.445 223.047 C 179.445 225.518,179.508 226.528,179.586 225.293 C 179.663 224.058,179.663 222.036,179.586 220.801 C 179.508 219.565,179.445 220.576,179.445 223.047 M72.363 220.983 C 72.954 221.072,73.921 221.072,74.512 220.983 C 75.103 220.893,74.619 220.820,73.438 220.820 C 72.256 220.820,71.772 220.893,72.363 220.983 M264.624 226.660 L 263.477 227.930 264.746 226.782 C 265.444 226.151,266.016 225.580,266.016 225.513 C 266.016 225.211,265.693 225.477,264.624 226.660 M95.874 227.441 L 94.727 228.711 95.996 227.564 C 96.694 226.933,97.266 226.361,97.266 226.294 C 97.266 225.992,96.943 226.258,95.874 227.441 M160.718 229.395 L 159.570 230.664 160.840 229.517 C 162.023 228.447,162.289 228.125,161.987 228.125 C 161.920 228.125,161.349 228.696,160.718 229.395 M281.738 231.540 C 283.188 231.615,285.562 231.615,287.012 231.540 C 288.462 231.465,287.275 231.403,284.375 231.403 C 281.475 231.403,280.288 231.465,281.738 231.540 M300.488 231.540 C 301.938 231.615,304.312 231.615,305.762 231.540 C 307.212 231.465,306.025 231.403,303.125 231.403 C 300.225 231.403,299.038 231.465,300.488 231.540 M102.804 250.683 C 108.536 250.744,118.029 250.744,123.898 250.683 C 129.768 250.623,125.078 250.573,113.477 250.573 C 101.875 250.573,97.073 250.622,102.804 250.683 M105.397 254.980 C 109.977 255.043,117.360 255.043,121.804 254.980 C 126.247 254.917,122.500 254.866,113.477 254.866 C 104.453 254.866,100.817 254.918,105.397 254.980 M108.129 267.870 C 111.204 267.936,116.125 267.936,119.067 267.870 C 122.008 267.804,119.492 267.750,113.477 267.750 C 107.461 267.750,105.055 267.804,108.129 267.870 " stroke="none" fill="#dbdbdb" fill-rule="evenodd"></path><path id="path4" d="M71.191 165.124 C 71.782 165.213,72.749 165.213,73.340 165.124 C 73.931 165.034,73.447 164.961,72.266 164.961 C 71.084 164.961,70.601 165.034,71.191 165.124 M102.916 187.109 C 102.916 198.604,102.966 203.306,103.027 197.559 C 103.088 191.812,103.088 182.407,103.027 176.660 C 102.966 170.913,102.916 175.615,102.916 187.109 M235.678 192.969 C 235.678 194.580,235.747 195.239,235.831 194.434 C 235.916 193.628,235.916 192.310,235.831 191.504 C 235.747 190.698,235.678 191.357,235.678 192.969 M322.804 194.922 C 322.804 197.393,322.867 198.403,322.945 197.168 C 323.022 195.933,323.022 193.911,322.945 192.676 C 322.867 191.440,322.804 192.451,322.804 194.922 M235.715 238.086 C 235.716 243.242,235.771 245.298,235.839 242.653 C 235.907 240.009,235.906 235.790,235.838 233.278 C 235.770 230.766,235.715 232.930,235.715 238.086 " stroke="none" fill="#fffde8" fill-rule="evenodd"></path></g></svg>
